<svg width="225" height="60" viewBox="0 0 225 60" fill="none" xmlns="http://www.w3.org/2000/svg">
<path d="M0.0317916 32.4695H2.54327C2.55122 32.7787 2.57507 32.9969 2.60686 33.1151C2.66249 33.3243 2.7817 33.4698 2.95655 33.5426C3.09961 33.6062 3.3301 33.6426 3.64801 33.6517L4.64147 33.6881C4.79248 33.6971 5.42035 33.679 6.52508 33.6608C6.97016 33.6517 7.28806 33.6062 7.47086 33.5244C7.80466 33.3789 7.97951 33.0879 7.97951 32.6604C7.97951 32.1239 7.73313 31.8147 7.24038 31.7328C7.11321 31.6965 6.68404 31.6874 5.9449 31.6874H3.62417C2.47969 31.6874 1.70876 31.6055 1.30343 31.4509C0.794772 31.2509 0.437125 30.878 0.230485 30.3233C0.0715302 29.905 0 29.3047 0 28.5318C0 27.295 0.230484 26.4401 0.683505 25.9763C1.065 25.5853 1.77235 25.3216 2.80555 25.2034C3.21883 25.1579 4.03745 25.1306 5.26139 25.1306C7.00989 25.1306 8.10668 25.1943 8.5597 25.3216C9.15578 25.4853 9.57701 25.8036 9.82339 26.2674C10.0459 26.6857 10.1651 27.295 10.1651 28.0953V28.459H7.66955C7.66161 27.9134 7.43113 27.5769 6.97811 27.4587C6.88273 27.4314 6.46945 27.4223 5.75416 27.4223C4.74479 27.4223 3.97387 27.4496 3.42547 27.5041C3.13141 27.5314 2.91682 27.586 2.78965 27.686C2.60685 27.8224 2.51943 28.0589 2.51943 28.3954C2.51943 28.841 2.70223 29.132 3.05988 29.2502C3.21883 29.3048 3.56058 29.332 4.09308 29.332H6.47739C6.63635 29.332 7.05758 29.3411 7.73314 29.3593C8.51996 29.3957 9.0763 29.4957 9.40216 29.6685C10.1413 30.0596 10.5069 31.0235 10.5069 32.5695C10.5069 33.9973 10.1969 34.9248 9.58496 35.3523C9.00477 35.7524 7.5106 35.9525 5.10244 35.9525C3.26652 35.9525 2.05846 35.8797 1.48623 35.7251C0.929886 35.5796 0.540445 35.2704 0.309961 34.7975C0.111268 34.3883 0.0158988 33.8063 0.0158988 33.0424C0.0238466 32.9514 0.0317916 32.7696 0.0317916 32.4695Z" fill="url(#paint0_linear_22_14)"/>
<path d="M17.8984 35.8706V34.552C17.7315 35.2431 17.3659 35.6887 16.8016 35.8888C16.5155 35.9888 15.9751 36.0343 15.1644 36.0343C13.861 36.0343 13.0344 35.8706 12.6768 35.5523C12.2873 35.1976 12.0886 34.552 12.0886 33.6153C12.0886 32.6604 12.2873 32.0147 12.6768 31.6601C12.9867 31.3872 13.4795 31.2145 14.155 31.1417C14.3617 31.1235 14.8862 31.1144 15.7207 31.1144C16.3089 31.1144 16.7062 31.1417 16.9208 31.2054C17.3977 31.3327 17.6997 31.6146 17.8269 32.0602V31.2417C17.8269 30.8962 17.803 30.6506 17.7553 30.5051C17.6679 30.2323 17.3977 30.0595 16.9447 30.005C16.8493 29.9868 16.5235 29.9777 15.9751 29.9777C15.4028 29.9777 15.1008 29.9777 15.077 29.9868C14.7114 30.0504 14.5127 30.2414 14.4888 30.5688H12.3191C12.3429 30.105 12.4065 29.7412 12.5257 29.4775C12.6609 29.1865 12.8754 28.941 13.1854 28.7318C13.5431 28.4953 14.0676 28.3408 14.7591 28.2771C15.0452 28.2498 15.5856 28.2407 16.3883 28.2407C17.7951 28.2407 18.7329 28.4044 19.2098 28.7227C19.639 29.0137 19.9092 29.523 20.0204 30.2596C20.0443 30.396 20.0522 30.7234 20.0522 31.2326V35.8706H17.8984ZM15.9512 32.6331C15.4187 32.6331 15.069 32.6513 14.918 32.6877C14.4729 32.7877 14.2504 33.0514 14.2504 33.4698C14.2504 33.9063 14.4729 34.1791 14.9101 34.27C15.0611 34.2973 15.4743 34.3155 16.1499 34.3155C16.7062 34.3155 17.0798 34.2882 17.2785 34.2427C17.6679 34.1518 17.8587 33.8881 17.8587 33.4516C17.8587 33.0151 17.6043 32.7513 17.0877 32.6604C16.9844 32.6513 16.6029 32.6331 15.9512 32.6331Z" fill="url(#paint1_linear_22_14)"/>
<path d="M22.7226 35.8705V30.2777H21.5623V28.4043H22.7226V28.1588C22.7226 27.3403 22.8021 26.731 22.9611 26.34C23.1915 25.758 23.5969 25.376 24.1691 25.1941C24.495 25.0941 25.0275 25.0396 25.7587 25.0396C26.0686 25.0396 26.4739 25.0668 26.9588 25.1214V26.9129C26.5693 26.8947 26.2832 26.8856 26.1084 26.8856C25.6712 26.8856 25.3692 26.9675 25.2023 27.1221C24.9957 27.3131 24.8923 27.6677 24.8923 28.1861V28.4043H27.0939V30.2777H24.8923V35.8705H22.7226Z" fill="url(#paint2_linear_22_14)"/>
<path d="M29.3828 35.8705V30.2777H28.2224V28.4043H29.3828V28.1588C29.3828 27.3403 29.4623 26.731 29.6212 26.34C29.8517 25.758 30.257 25.376 30.8293 25.1941C31.1551 25.0941 31.6876 25.0396 32.4188 25.0396C32.7288 25.0396 33.1341 25.0668 33.6189 25.1214V26.9129C33.2295 26.8947 32.9434 26.8856 32.7685 26.8856C32.3314 26.8856 32.0294 26.9675 31.8625 27.1221C31.6558 27.3131 31.5525 27.6677 31.5525 28.1861V28.4043H33.754V30.2777H31.5525V35.8705H29.3828Z" fill="url(#paint3_linear_22_14)"/>
<path d="M35.0415 35.8704V28.4042H37.1318V30.0684C37.2271 29.732 37.2987 29.4955 37.3543 29.3773C37.4497 29.1409 37.5768 28.9499 37.7199 28.8044C38.1093 28.4224 38.7134 28.2314 39.5479 28.2314C40.4857 28.2314 41.1374 28.5043 41.4951 29.059C41.7573 29.4682 41.8924 30.1867 41.8924 31.2234C41.8924 31.3052 41.8924 31.4689 41.8845 31.7054H39.8658C39.8658 31.6508 39.8658 31.6144 39.8658 31.5871C39.8658 31.1233 39.7545 30.796 39.5399 30.605C39.3651 30.4504 39.0869 30.3776 38.6975 30.3776C38.0775 30.3776 37.6563 30.5959 37.4258 31.0324C37.2748 31.3143 37.2033 31.7781 37.2033 32.4147V35.8613H35.0415V35.8704Z" fill="url(#paint4_linear_22_14)"/>
<path d="M47.1698 28.2407C48.2268 28.2407 49.0693 28.3135 49.7051 28.4499C50.4601 28.6136 50.9529 29.0319 51.1834 29.6867C51.3264 30.0959 51.398 30.8416 51.398 31.9329C51.398 33.2606 51.3185 34.1427 51.1595 34.5974C50.9131 35.2795 50.3091 35.7251 49.3315 35.9161C48.9262 35.9979 48.1712 36.0343 47.0664 36.0343C45.31 36.0343 44.1814 35.7887 43.6807 35.2977C43.3549 34.9794 43.1403 34.4883 43.0528 33.8244C43.0131 33.5243 42.9893 32.9514 42.9893 32.0966C42.9893 30.8507 43.0926 29.9959 43.3072 29.523C43.5774 28.9319 44.1655 28.5408 45.0716 28.3589C45.5007 28.2771 46.1922 28.2407 47.1698 28.2407ZM47.1539 30.2778C46.3591 30.2778 45.8425 30.3596 45.612 30.5233C45.31 30.7416 45.159 31.2781 45.159 32.1239C45.159 32.5604 45.1749 32.8605 45.1987 33.0333C45.2544 33.3697 45.3815 33.6153 45.5882 33.7699C45.8187 33.9427 46.3511 34.0245 47.2016 34.0245C48.0917 34.0245 48.6401 33.9245 48.8626 33.7335C49.117 33.5061 49.2441 32.9969 49.2441 32.1784C49.2441 31.6964 49.2282 31.369 49.1885 31.1872C49.0931 30.7234 48.8149 30.4324 48.346 30.3232C48.195 30.296 47.7976 30.2778 47.1539 30.2778Z" fill="url(#paint5_linear_22_14)"/>
<path d="M53.0193 35.8706V28.4044H55.1334V30.1414C55.2764 29.4593 55.5149 28.9773 55.8566 28.7136C56.262 28.3953 56.9296 28.2407 57.8594 28.2407C59.1311 28.2407 60.0053 28.5954 60.4901 29.3047C60.8478 29.8322 61.0226 30.6961 61.0226 31.9147V35.8797H58.8609V32.0329C58.8609 31.3145 58.694 30.8416 58.3602 30.6233C58.1297 30.4687 57.6925 30.396 57.0488 30.396C56.3653 30.396 55.8884 30.5324 55.6261 30.7961C55.3321 31.0962 55.1811 31.6692 55.1811 32.5149V35.8888H53.0193V35.8706Z" fill="url(#paint6_linear_22_14)"/>
<path d="M135.477 32.1692H137.949V32.6512C137.949 33.6515 137.853 34.379 137.67 34.8337C137.432 35.4339 136.971 35.8341 136.288 36.0341C135.954 36.1342 135.453 36.1978 134.793 36.2342C134.34 36.2524 133.442 36.2615 132.107 36.2615C131.01 36.2615 130.176 36.216 129.596 36.1251C128.499 35.9523 127.815 35.3339 127.529 34.279C127.33 33.5515 127.235 32.3238 127.235 30.6141C127.235 29.2773 127.299 28.3497 127.418 27.8223C127.64 26.8674 128.117 26.2217 128.841 25.8671C129.413 25.5942 130.573 25.4487 132.322 25.4487C134.523 25.4487 135.874 25.5397 136.359 25.7306C136.939 25.958 137.345 26.3581 137.575 26.9401C137.75 27.3948 137.837 28.0496 137.837 28.8863V29.25H135.389C135.366 28.8954 135.326 28.6498 135.262 28.5043C135.135 28.2224 134.762 28.0587 134.15 28.0041C134.102 27.995 133.697 27.9951 132.926 27.9951C131.702 27.9951 130.978 28.0223 130.756 28.0769C130.16 28.2133 129.842 28.7135 129.794 29.5774C129.778 29.8684 129.77 30.3322 129.77 30.9688C129.77 32.1419 129.89 32.8876 130.12 33.1877C130.311 33.4333 130.676 33.5879 131.225 33.6515C131.408 33.6697 131.805 33.6788 132.417 33.6788C133.856 33.6788 134.706 33.606 134.968 33.4696C135.302 33.2969 135.469 32.8603 135.477 32.1692Z" fill="url(#paint7_linear_22_14)"/>
<path d="M143.711 28.5498C144.768 28.5498 145.61 28.6226 146.246 28.759C147.001 28.9227 147.494 29.341 147.724 29.9957C147.867 30.405 147.939 31.1507 147.939 32.242C147.939 33.5697 147.859 34.4518 147.701 34.9065C147.454 35.5886 146.85 36.0342 145.873 36.2251C145.467 36.307 144.712 36.3434 143.607 36.3434C141.851 36.3434 140.722 36.0978 140.222 35.6067C139.896 35.2884 139.681 34.7974 139.594 34.1335C139.554 33.8334 139.53 33.2605 139.53 32.4057C139.53 31.1598 139.634 30.3049 139.848 29.8321C140.118 29.241 140.707 28.8499 141.613 28.668C142.042 28.5862 142.741 28.5498 143.711 28.5498ZM143.703 30.5869C142.908 30.5869 142.391 30.6687 142.161 30.8324C141.859 31.0506 141.708 31.5872 141.708 32.4329C141.708 32.8695 141.724 33.1696 141.748 33.3423C141.803 33.6788 141.93 33.9244 142.137 34.079C142.368 34.2517 142.9 34.3336 143.751 34.3336C144.641 34.3336 145.189 34.2336 145.412 34.0426C145.666 33.8152 145.793 33.306 145.793 32.4875C145.793 32.0055 145.777 31.6781 145.737 31.4963C145.642 31.0325 145.364 30.7415 144.895 30.6323C144.736 30.6051 144.339 30.5869 143.703 30.5869Z" fill="url(#paint8_linear_22_14)"/>
<path d="M149.56 36.1797V28.7136H151.651V30.3777C151.746 30.0413 151.817 29.8048 151.873 29.6866C151.968 29.4502 152.096 29.2592 152.239 29.1137C152.628 28.7317 153.232 28.5408 154.067 28.5408C155.004 28.5408 155.656 28.8136 156.014 29.3683C156.276 29.7775 156.411 30.496 156.411 31.5327C156.411 31.6145 156.411 31.7782 156.403 32.0147H154.385C154.385 31.9601 154.385 31.9237 154.385 31.8965C154.385 31.4327 154.273 31.1053 154.059 30.9143C153.884 30.7597 153.606 30.687 153.216 30.687C152.596 30.687 152.175 30.9052 151.945 31.3417C151.794 31.6236 151.722 32.0874 151.722 32.724V36.1706H149.56V36.1797Z" fill="url(#paint9_linear_22_14)"/>
<path d="M159.813 28.7135V30.2958C159.98 29.4774 160.322 28.9499 160.846 28.7317C161.124 28.6135 161.704 28.5498 162.571 28.5498C164.391 28.5498 165.48 29.0227 165.837 29.9685C166.02 30.4504 166.108 31.2598 166.108 32.3966C166.108 33.1514 166.076 33.7152 166.02 34.0971C165.925 34.761 165.718 35.243 165.416 35.5613C164.923 36.0796 163.954 36.3434 162.515 36.3434C161.8 36.3434 161.267 36.2706 160.902 36.1342C160.306 35.9068 159.94 35.4612 159.813 34.7974V39.4353H157.651V28.7044H159.813V28.7135ZM161.999 30.5869C160.997 30.5778 160.393 30.6687 160.194 30.8597C159.94 31.0961 159.813 31.6236 159.813 32.442C159.813 32.8694 159.829 33.1696 159.861 33.3423C159.924 33.6697 160.059 33.8971 160.266 34.0244C160.512 34.179 161.069 34.2517 161.943 34.2517C162.801 34.2517 163.326 34.1608 163.517 33.9607C163.755 33.7243 163.866 33.1786 163.866 32.3329C163.866 31.5599 163.715 31.0597 163.413 30.8233C163.207 30.6778 162.738 30.596 161.999 30.5869Z" fill="url(#paint10_linear_22_14)"/>
<path d="M171.623 28.5498C172.68 28.5498 173.523 28.6226 174.158 28.759C174.913 28.9227 175.406 29.341 175.637 29.9957C175.78 30.405 175.851 31.1507 175.851 32.242C175.851 33.5697 175.772 34.4518 175.613 34.9065C175.367 35.5886 174.762 36.0342 173.785 36.2251C173.38 36.307 172.625 36.3434 171.52 36.3434C169.763 36.3434 168.635 36.0978 168.134 35.6067C167.808 35.2884 167.594 34.7974 167.506 34.1335C167.466 33.8334 167.443 33.2605 167.443 32.4057C167.443 31.1598 167.546 30.3049 167.761 29.8321C168.031 29.241 168.619 28.8499 169.525 28.668C169.954 28.5862 170.646 28.5498 171.623 28.5498ZM171.607 30.5869C170.812 30.5869 170.296 30.6687 170.065 30.8324C169.763 31.0506 169.612 31.5872 169.612 32.4329C169.612 32.8695 169.628 33.1696 169.652 33.3423C169.708 33.6788 169.835 33.9244 170.042 34.079C170.272 34.2517 170.805 34.3336 171.655 34.3336C172.545 34.3336 173.093 34.2336 173.316 34.0426C173.57 33.8152 173.697 33.306 173.697 32.4875C173.697 32.0055 173.682 31.6781 173.642 31.4963C173.546 31.0325 173.268 30.7415 172.799 30.6323C172.648 30.6051 172.251 30.5869 171.607 30.5869Z" fill="url(#paint11_linear_22_14)"/>
<path d="M177.473 36.1797V28.7136H179.563V30.3777C179.658 30.0413 179.73 29.8048 179.785 29.6866C179.881 29.4502 180.008 29.2592 180.151 29.1137C180.54 28.7317 181.145 28.5408 181.979 28.5408C182.917 28.5408 183.569 28.8136 183.926 29.3683C184.188 29.7775 184.324 30.496 184.324 31.5327C184.324 31.6145 184.324 31.7782 184.316 32.0147H182.297C182.297 31.9601 182.297 31.9237 182.297 31.8965C182.297 31.4327 182.186 31.1053 181.971 30.9143C181.796 30.7597 181.518 30.687 181.129 30.687C180.509 30.687 180.087 30.9052 179.857 31.3417C179.706 31.6236 179.634 32.0874 179.634 32.724V36.1706H177.473V36.1797Z" fill="url(#paint12_linear_22_14)"/>
<path d="M191.135 36.1797V34.861C190.968 35.5522 190.602 35.9978 190.038 36.1979C189.752 36.2979 189.211 36.3434 188.401 36.3434C187.097 36.3434 186.271 36.1797 185.913 35.8614C185.524 35.5067 185.325 34.861 185.325 33.9244C185.325 32.9695 185.524 32.3238 185.913 31.9691C186.223 31.6963 186.716 31.5235 187.391 31.4508C187.598 31.4326 188.123 31.4235 188.957 31.4235C189.545 31.4235 189.943 31.4508 190.157 31.5144C190.634 31.6418 190.936 31.9237 191.063 32.3693V31.5508C191.063 31.2053 191.039 30.9597 190.992 30.8142C190.904 30.5414 190.634 30.3686 190.181 30.314C190.086 30.2959 189.76 30.2868 189.211 30.2868C188.639 30.2868 188.337 30.2868 188.313 30.2958C187.948 30.3595 187.749 30.5505 187.725 30.8779H185.555C185.579 30.4141 185.643 30.0503 185.762 29.7866C185.897 29.4956 186.112 29.25 186.422 29.0409C186.779 28.8044 187.304 28.6498 187.995 28.5862C188.281 28.5589 188.822 28.5498 189.625 28.5498C191.031 28.5498 191.969 28.7135 192.446 29.0318C192.875 29.3228 193.145 29.8321 193.257 30.5687C193.281 30.7051 193.289 31.0325 193.289 31.5417V36.1797H191.135ZM189.188 32.9513C188.655 32.9513 188.305 32.9695 188.154 33.0059C187.709 33.1059 187.487 33.3696 187.487 33.7879C187.487 34.2245 187.709 34.4973 188.146 34.5882C188.297 34.6155 188.711 34.6337 189.386 34.6337C189.943 34.6337 190.316 34.6064 190.515 34.5609C190.904 34.47 191.095 34.2063 191.095 33.7698C191.095 33.3332 190.841 33.0695 190.324 32.9786C190.213 32.9604 189.839 32.9513 189.188 32.9513Z" fill="url(#paint13_linear_22_14)"/>
<path d="M199.941 32.9786H201.602V33.5697C201.602 34.6155 201.459 35.3158 201.173 35.6522C200.783 36.116 200.052 36.3434 198.979 36.3434C198.335 36.3434 197.89 36.3252 197.636 36.2797C197.104 36.1888 196.698 35.9978 196.404 35.6977C196.023 35.3067 195.832 34.6064 195.832 33.6152V30.5778H194.719V28.7044H195.832V26.9402H198.041V28.7044H201.602V30.5778H198.041V33.0332C198.041 33.5333 198.097 33.8789 198.208 34.0608C198.343 34.279 198.598 34.3791 198.987 34.3791C199.353 34.3791 199.607 34.3154 199.734 34.179C199.877 34.0244 199.949 33.7243 199.949 33.2696V32.9786H199.941Z" fill="url(#paint14_linear_22_14)"/>
<path d="M203.215 27.54V25.5303H205.377V27.54H203.215ZM203.215 36.1793V28.7132H205.377V36.1793H203.215Z" fill="url(#paint15_linear_22_14)"/>
<path d="M211.147 28.5498C212.204 28.5498 213.047 28.6226 213.682 28.759C214.437 28.9227 214.93 29.341 215.161 29.9957C215.304 30.405 215.375 31.1507 215.375 32.242C215.375 33.5697 215.296 34.4518 215.137 34.9065C214.89 35.5886 214.286 36.0342 213.309 36.2251C212.904 36.307 212.148 36.3434 211.044 36.3434C209.287 36.3434 208.159 36.0978 207.658 35.6067C207.332 35.2884 207.118 34.7974 207.03 34.1335C206.99 33.8334 206.967 33.2605 206.967 32.4057C206.967 31.1598 207.07 30.3049 207.284 29.8321C207.555 29.241 208.143 28.8499 209.049 28.668C209.478 28.5862 210.177 28.5498 211.147 28.5498ZM211.139 30.5869C210.344 30.5869 209.828 30.6687 209.597 30.8324C209.295 31.0506 209.144 31.5872 209.144 32.4329C209.144 32.8695 209.16 33.1696 209.184 33.3423C209.24 33.6788 209.367 33.9244 209.573 34.079C209.804 34.2517 210.336 34.3336 211.187 34.3336C212.077 34.3336 212.625 34.2336 212.848 34.0426C213.102 33.8152 213.229 33.306 213.229 32.4875C213.229 32.0055 213.213 31.6781 213.174 31.4963C213.078 31.0325 212.8 30.7415 212.331 30.6323C212.18 30.6051 211.783 30.5869 211.139 30.5869Z" fill="url(#paint16_linear_22_14)"/>
<path d="M216.997 36.1797V28.7135H219.111V30.4504C219.254 29.7684 219.492 29.2864 219.834 29.0227C220.239 28.7044 220.907 28.5498 221.837 28.5498C223.108 28.5498 223.983 28.9045 224.467 29.6138C224.825 30.1413 225 31.0052 225 32.2238V36.1888H222.838V32.342C222.838 31.6236 222.671 31.1507 222.337 30.9324C222.107 30.7778 221.67 30.7051 221.026 30.7051C220.343 30.7051 219.866 30.8415 219.603 31.1052C219.309 31.4053 219.158 31.9782 219.158 32.824V36.1979H216.997V36.1797Z" fill="url(#paint17_linear_22_14)"/>
<path d="M73.4607 45.6102C73.4607 45.6102 71.0446 36.9163 74.1521 28.0861C77.2597 19.2558 83.7689 12.6081 91.8279 9.3797C99.8869 6.15134 108.089 7.01527 113.485 11.7441L112.842 7.94286L105.522 2.06814C105.522 2.06814 91.3987 -1.44215 78.7221 12.9536C66.0455 27.3494 67.1025 33.3787 68.096 38.3804C69.0894 43.3821 73.4607 45.6102 73.4607 45.6102Z" fill="url(#paint18_linear_22_14)"/>
<path d="M84.508 23.5573C84.508 23.5573 87.9812 18.21 93.5366 16.1184C99.0921 14.0268 104.322 15.4636 106.118 17.4188L105.808 15.209C105.808 15.209 104.115 10.9894 100.777 9.95266C97.439 8.91595 89.5628 9.82534 84.508 14.4269C79.4453 19.0285 77.4504 22.6206 77.0133 24.2211C76.5762 25.8126 79.3658 25.7216 79.9381 25.4761C80.5182 25.2124 84.508 23.5573 84.508 23.5573Z" fill="url(#paint19_linear_22_14)"/>
<path d="M114.447 3.81421L110.672 7.24264L113.486 11.7442L117.507 8.48852L114.447 3.81421Z" fill="url(#paint20_linear_22_14)"/>
<path d="M109.965 14.2631L106.976 9.75244L103.559 12.8444L106.118 17.4096L109.965 14.2631Z" fill="url(#paint21_linear_22_14)"/>
<path d="M72.7456 29.7956L75.6386 34.5245L104.028 28.0041C104.028 28.0041 107.159 22.5204 105.45 21.7565C103.742 20.9926 85.1282 25.3395 82.7995 25.9397C80.4708 26.5399 72.7456 29.7956 72.7456 29.7956Z" fill="url(#paint22_linear_22_14)"/>
<path d="M74.9231 40.0626C74.9231 40.0626 78.6267 48.4837 86.7493 48.2654C94.8719 48.0472 99.4736 45.4372 105.363 39.6807C111.252 33.9242 113.152 26.1488 113.295 22.6203L110.823 17.8369C110.823 17.8369 105.792 32.6146 99.6167 37.3981C93.4413 42.1815 87.4169 42.3452 83.2364 42.0178C79.0559 41.6905 74.9231 40.0626 74.9231 40.0626Z" fill="url(#paint23_linear_22_14)"/>
<path d="M85.287 22.7114L87.6237 26.6127L104.934 22.9024C104.934 22.9024 103.13 33.988 93.0202 38.0075C82.9107 42.027 78.7302 35.834 78.7302 35.834L74.9312 40.0718C74.9312 40.0718 80.1528 47.1379 90.2703 44.2551C100.388 41.3723 106.126 33.4423 108.407 28.3952C110.688 23.3389 110.831 17.8552 110.831 17.8552L85.287 22.7114Z" fill="url(#paint24_linear_22_14)"/>
<path d="M77.7288 24.1484C77.7288 24.1484 79.5886 20.4835 82.8631 16.9369L82.5293 13.4175C81.3609 14.436 80.2324 15.5546 79.1515 16.8095C73.2145 23.7119 72.7853 28.5408 72.7456 29.7958L87.6317 26.6038L85.2951 22.7025L77.7288 24.1484Z" fill="url(#paint25_linear_22_14)"/>
<path d="M87.2263 13.1171C93.1632 9.0976 99.5691 9.37042 103.559 12.8443L106.976 9.74327C106.976 9.74327 105.315 6.43306 98.9969 6.54219C93.8229 6.63313 87.7985 8.83387 82.5212 13.4172L82.855 16.9366C84.1187 15.5816 85.5811 14.2357 87.2263 13.1171Z" fill="#F36E21"/>
<path d="M87.2263 13.1171C93.1632 9.0976 99.5691 9.37042 103.559 12.8443L106.976 9.74327C106.976 9.74327 105.315 6.43306 98.9969 6.54219C93.8229 6.63313 87.7985 8.83387 82.5212 13.4172L82.855 16.9366C84.1187 15.5816 85.5811 14.2357 87.2263 13.1171Z" fill="url(#paint26_linear_22_14)"/>
<path d="M66.9358 44.6733C66.141 44.0822 68.1359 48.0654 68.5889 49.0475C73.8741 60.4696 90.5644 62.734 105.013 53.9765C117.658 46.3102 125.201 32.9694 123.007 21.9202L120.384 16.9548C120.384 16.9548 114.98 36.707 105.196 42.6817C95.4125 48.6656 84.1505 57.5504 66.9358 44.6733Z" fill="url(#paint27_linear_22_14)"/>
<path d="M115.155 17.2367C116.084 25.8851 110.537 36.516 100.865 43.2456C89.0224 51.4847 75.4795 50.7481 70.6234 41.5995C65.823 32.551 71.307 18.6736 82.8868 10.398L82.2589 7.38794C68.3583 16.7366 61.2769 33.3331 66.6257 44.5733C72.0222 55.9135 88.0925 57.8232 102.51 48.8383C114.956 41.0903 122.109 27.7585 120.376 16.9639L115.155 17.2367Z" fill="url(#paint28_linear_22_14)"/>
<path d="M99.7597 3.41396C108.303 3.35939 110.672 7.24253 110.672 7.24253L114.463 3.83228C112.945 1.51331 104.735 -1.75143 94.9831 1.13136C91.4543 2.17717 86.6936 4.04144 82.2588 7.38803L82.5052 10.6801C88.5057 6.15125 94.0771 3.45033 99.7597 3.41396Z" fill="url(#paint29_linear_22_14)"/>
<path d="M99.7597 3.41366C108.303 3.41366 110.672 7.24223 110.672 7.24223L114.463 3.83198C112.945 1.51301 104.743 -1.74264 94.9831 1.13107C91.4543 2.16778 86.6936 4.04115 82.2588 7.38774L82.5052 10.6798C88.7362 6.03273 94.1088 3.41366 99.7597 3.41366Z" fill="url(#paint30_linear_22_14)"/>
<defs>
<linearGradient id="paint0_linear_22_14" x1="-1.56824" y1="30.546" x2="66.9772" y2="30.546" gradientUnits="userSpaceOnUse">
<stop stop-color="#B52025"/>
<stop offset="0.1234" stop-color="#B92325"/>
<stop offset="0.2486" stop-color="#C62E26"/>
<stop offset="0.3744" stop-color="#DC3F29"/>
<stop offset="0.4382" stop-color="#F04C2A"/>
<stop offset="0.5306" stop-color="#CF3E29"/>
<stop offset="0.7438" stop-color="#9B2523"/>
<stop offset="0.9071" stop-color="#7E161C"/>
<stop offset="1" stop-color="#74101A"/>
</linearGradient>
<linearGradient id="paint1_linear_22_14" x1="-1.5681" y1="32.135" x2="66.9773" y2="32.135" gradientUnits="userSpaceOnUse">
<stop stop-color="#B52025"/>
<stop offset="0.1234" stop-color="#B92325"/>
<stop offset="0.2486" stop-color="#C62E26"/>
<stop offset="0.3744" stop-color="#DC3F29"/>
<stop offset="0.4382" stop-color="#F04C2A"/>
<stop offset="0.5306" stop-color="#CF3E29"/>
<stop offset="0.7438" stop-color="#9B2523"/>
<stop offset="0.9071" stop-color="#7E161C"/>
<stop offset="1" stop-color="#74101A"/>
</linearGradient>
<linearGradient id="paint2_linear_22_14" x1="-1.56815" y1="30.4508" x2="66.9773" y2="30.4508" gradientUnits="userSpaceOnUse">
<stop stop-color="#B52025"/>
<stop offset="0.1234" stop-color="#B92325"/>
<stop offset="0.2486" stop-color="#C62E26"/>
<stop offset="0.3744" stop-color="#DC3F29"/>
<stop offset="0.4382" stop-color="#F04C2A"/>
<stop offset="0.5306" stop-color="#CF3E29"/>
<stop offset="0.7438" stop-color="#9B2523"/>
<stop offset="0.9071" stop-color="#7E161C"/>
<stop offset="1" stop-color="#74101A"/>
</linearGradient>
<linearGradient id="paint3_linear_22_14" x1="-1.56819" y1="30.4508" x2="66.9772" y2="30.4508" gradientUnits="userSpaceOnUse">
<stop stop-color="#B52025"/>
<stop offset="0.1234" stop-color="#B92325"/>
<stop offset="0.2486" stop-color="#C62E26"/>
<stop offset="0.3744" stop-color="#DC3F29"/>
<stop offset="0.4382" stop-color="#F04C2A"/>
<stop offset="0.5306" stop-color="#CF3E29"/>
<stop offset="0.7438" stop-color="#9B2523"/>
<stop offset="0.9071" stop-color="#7E161C"/>
<stop offset="1" stop-color="#74101A"/>
</linearGradient>
<linearGradient id="paint4_linear_22_14" x1="-1.56826" y1="32.0533" x2="66.9772" y2="32.0533" gradientUnits="userSpaceOnUse">
<stop stop-color="#B52025"/>
<stop offset="0.1234" stop-color="#B92325"/>
<stop offset="0.2486" stop-color="#C62E26"/>
<stop offset="0.3744" stop-color="#DC3F29"/>
<stop offset="0.4382" stop-color="#F04C2A"/>
<stop offset="0.5306" stop-color="#CF3E29"/>
<stop offset="0.7438" stop-color="#9B2523"/>
<stop offset="0.9071" stop-color="#7E161C"/>
<stop offset="1" stop-color="#74101A"/>
</linearGradient>
<linearGradient id="paint5_linear_22_14" x1="-1.56823" y1="32.135" x2="66.9772" y2="32.135" gradientUnits="userSpaceOnUse">
<stop stop-color="#B52025"/>
<stop offset="0.1234" stop-color="#B92325"/>
<stop offset="0.2486" stop-color="#C62E26"/>
<stop offset="0.3744" stop-color="#DC3F29"/>
<stop offset="0.4382" stop-color="#F04C2A"/>
<stop offset="0.5306" stop-color="#CF3E29"/>
<stop offset="0.7438" stop-color="#9B2523"/>
<stop offset="0.9071" stop-color="#7E161C"/>
<stop offset="1" stop-color="#74101A"/>
</linearGradient>
<linearGradient id="paint6_linear_22_14" x1="-1.56817" y1="32.0535" x2="66.9772" y2="32.0535" gradientUnits="userSpaceOnUse">
<stop stop-color="#B52025"/>
<stop offset="0.1234" stop-color="#B92325"/>
<stop offset="0.2486" stop-color="#C62E26"/>
<stop offset="0.3744" stop-color="#DC3F29"/>
<stop offset="0.4382" stop-color="#F04C2A"/>
<stop offset="0.5306" stop-color="#CF3E29"/>
<stop offset="0.7438" stop-color="#9B2523"/>
<stop offset="0.9071" stop-color="#7E161C"/>
<stop offset="1" stop-color="#74101A"/>
</linearGradient>
<linearGradient id="paint7_linear_22_14" x1="125.615" y1="29.9848" x2="256.598" y2="42.4133" gradientUnits="userSpaceOnUse">
<stop stop-color="#B52025"/>
<stop offset="0.1234" stop-color="#B92325"/>
<stop offset="0.2486" stop-color="#C62E26"/>
<stop offset="0.3744" stop-color="#DC3F29"/>
<stop offset="0.4382" stop-color="#F04C2A"/>
<stop offset="0.5306" stop-color="#CF3E29"/>
<stop offset="0.7438" stop-color="#9B2523"/>
<stop offset="0.9071" stop-color="#7E161C"/>
<stop offset="1" stop-color="#74101A"/>
</linearGradient>
<linearGradient id="paint8_linear_22_14" x1="125.596" y1="30.1909" x2="256.578" y2="42.6193" gradientUnits="userSpaceOnUse">
<stop stop-color="#B52025"/>
<stop offset="0.1234" stop-color="#B92325"/>
<stop offset="0.2486" stop-color="#C62E26"/>
<stop offset="0.3744" stop-color="#DC3F29"/>
<stop offset="0.4382" stop-color="#F04C2A"/>
<stop offset="0.5306" stop-color="#CF3E29"/>
<stop offset="0.7438" stop-color="#9B2523"/>
<stop offset="0.9071" stop-color="#7E161C"/>
<stop offset="1" stop-color="#74101A"/>
</linearGradient>
<linearGradient id="paint9_linear_22_14" x1="125.699" y1="29.105" x2="256.681" y2="41.5334" gradientUnits="userSpaceOnUse">
<stop stop-color="#B52025"/>
<stop offset="0.1234" stop-color="#B92325"/>
<stop offset="0.2486" stop-color="#C62E26"/>
<stop offset="0.3744" stop-color="#DC3F29"/>
<stop offset="0.4382" stop-color="#F04C2A"/>
<stop offset="0.5306" stop-color="#CF3E29"/>
<stop offset="0.7438" stop-color="#9B2523"/>
<stop offset="0.9071" stop-color="#7E161C"/>
<stop offset="1" stop-color="#74101A"/>
</linearGradient>
<linearGradient id="paint10_linear_22_14" x1="125.644" y1="29.6796" x2="256.627" y2="42.1081" gradientUnits="userSpaceOnUse">
<stop stop-color="#B52025"/>
<stop offset="0.1234" stop-color="#B92325"/>
<stop offset="0.2486" stop-color="#C62E26"/>
<stop offset="0.3744" stop-color="#DC3F29"/>
<stop offset="0.4382" stop-color="#F04C2A"/>
<stop offset="0.5306" stop-color="#CF3E29"/>
<stop offset="0.7438" stop-color="#9B2523"/>
<stop offset="0.9071" stop-color="#7E161C"/>
<stop offset="1" stop-color="#74101A"/>
</linearGradient>
<linearGradient id="paint11_linear_22_14" x1="125.921" y1="26.764" x2="256.903" y2="39.1924" gradientUnits="userSpaceOnUse">
<stop stop-color="#B52025"/>
<stop offset="0.1234" stop-color="#B92325"/>
<stop offset="0.2486" stop-color="#C62E26"/>
<stop offset="0.3744" stop-color="#DC3F29"/>
<stop offset="0.4382" stop-color="#F04C2A"/>
<stop offset="0.5306" stop-color="#CF3E29"/>
<stop offset="0.7438" stop-color="#9B2523"/>
<stop offset="0.9071" stop-color="#7E161C"/>
<stop offset="1" stop-color="#74101A"/>
</linearGradient>
<linearGradient id="paint12_linear_22_14" x1="126.024" y1="25.6782" x2="257.006" y2="38.1066" gradientUnits="userSpaceOnUse">
<stop stop-color="#B52025"/>
<stop offset="0.1234" stop-color="#B92325"/>
<stop offset="0.2486" stop-color="#C62E26"/>
<stop offset="0.3744" stop-color="#DC3F29"/>
<stop offset="0.4382" stop-color="#F04C2A"/>
<stop offset="0.5306" stop-color="#CF3E29"/>
<stop offset="0.7438" stop-color="#9B2523"/>
<stop offset="0.9071" stop-color="#7E161C"/>
<stop offset="1" stop-color="#74101A"/>
</linearGradient>
<linearGradient id="paint13_linear_22_14" x1="126.124" y1="24.6262" x2="257.106" y2="37.0546" gradientUnits="userSpaceOnUse">
<stop stop-color="#B52025"/>
<stop offset="0.1234" stop-color="#B92325"/>
<stop offset="0.2486" stop-color="#C62E26"/>
<stop offset="0.3744" stop-color="#DC3F29"/>
<stop offset="0.4382" stop-color="#F04C2A"/>
<stop offset="0.5306" stop-color="#CF3E29"/>
<stop offset="0.7438" stop-color="#9B2523"/>
<stop offset="0.9071" stop-color="#7E161C"/>
<stop offset="1" stop-color="#74101A"/>
</linearGradient>
<linearGradient id="paint14_linear_22_14" x1="126.304" y1="22.7284" x2="257.286" y2="35.1568" gradientUnits="userSpaceOnUse">
<stop stop-color="#B52025"/>
<stop offset="0.1234" stop-color="#B92325"/>
<stop offset="0.2486" stop-color="#C62E26"/>
<stop offset="0.3744" stop-color="#DC3F29"/>
<stop offset="0.4382" stop-color="#F04C2A"/>
<stop offset="0.5306" stop-color="#CF3E29"/>
<stop offset="0.7438" stop-color="#9B2523"/>
<stop offset="0.9071" stop-color="#7E161C"/>
<stop offset="1" stop-color="#74101A"/>
</linearGradient>
<linearGradient id="paint15_linear_22_14" x1="126.451" y1="21.1868" x2="257.432" y2="33.615" gradientUnits="userSpaceOnUse">
<stop stop-color="#B52025"/>
<stop offset="0.1234" stop-color="#B92325"/>
<stop offset="0.2486" stop-color="#C62E26"/>
<stop offset="0.3744" stop-color="#DC3F29"/>
<stop offset="0.4382" stop-color="#F04C2A"/>
<stop offset="0.5306" stop-color="#CF3E29"/>
<stop offset="0.7438" stop-color="#9B2523"/>
<stop offset="0.9071" stop-color="#7E161C"/>
<stop offset="1" stop-color="#74101A"/>
</linearGradient>
<linearGradient id="paint16_linear_22_14" x1="126.381" y1="21.9105" x2="257.364" y2="34.339" gradientUnits="userSpaceOnUse">
<stop stop-color="#B52025"/>
<stop offset="0.1234" stop-color="#B92325"/>
<stop offset="0.2486" stop-color="#C62E26"/>
<stop offset="0.3744" stop-color="#DC3F29"/>
<stop offset="0.4382" stop-color="#F04C2A"/>
<stop offset="0.5306" stop-color="#CF3E29"/>
<stop offset="0.7438" stop-color="#9B2523"/>
<stop offset="0.9071" stop-color="#7E161C"/>
<stop offset="1" stop-color="#74101A"/>
</linearGradient>
<linearGradient id="paint17_linear_22_14" x1="126.487" y1="20.7978" x2="257.469" y2="33.2261" gradientUnits="userSpaceOnUse">
<stop stop-color="#B52025"/>
<stop offset="0.1234" stop-color="#B92325"/>
<stop offset="0.2486" stop-color="#C62E26"/>
<stop offset="0.3744" stop-color="#DC3F29"/>
<stop offset="0.4382" stop-color="#F04C2A"/>
<stop offset="0.5306" stop-color="#CF3E29"/>
<stop offset="0.7438" stop-color="#9B2523"/>
<stop offset="0.9071" stop-color="#7E161C"/>
<stop offset="1" stop-color="#74101A"/>
</linearGradient>
<linearGradient id="paint18_linear_22_14" x1="69.0919" y1="38.6036" x2="115.588" y2="3.96925" gradientUnits="userSpaceOnUse">
<stop stop-color="#010101"/>
<stop offset="0.00392389" stop-color="#050504"/>
<stop offset="0.0833" stop-color="#3D2F28"/>
<stop offset="0.1624" stop-color="#684A3B"/>
<stop offset="0.2395" stop-color="#946349"/>
<stop offset="0.3142" stop-color="#B97854"/>
<stop offset="0.3858" stop-color="#D7885C"/>
<stop offset="0.453" stop-color="#EB9360"/>
<stop offset="0.5112" stop-color="#F69862"/>
<stop offset="0.5537" stop-color="#E7915F"/>
<stop offset="0.6158" stop-color="#CD8259"/>
<stop offset="0.6901" stop-color="#A56D4F"/>
<stop offset="0.7737" stop-color="#74513F"/>
<stop offset="0.8652" stop-color="#41322A"/>
<stop offset="0.9607" stop-color="#010101"/>
</linearGradient>
<linearGradient id="paint19_linear_22_14" x1="91.546" y1="25.1234" x2="91.546" y2="8.22271" gradientUnits="userSpaceOnUse">
<stop offset="0.2247" stop-color="#F09F64"/>
<stop offset="0.318" stop-color="#CF8B5C"/>
<stop offset="0.5128" stop-color="#8B6348"/>
<stop offset="0.7901" stop-color="#392E27"/>
<stop offset="0.9607" stop-color="#010101"/>
</linearGradient>
<linearGradient id="paint20_linear_22_14" x1="114.091" y1="11.5045" x2="114.091" y2="3.1558" gradientUnits="userSpaceOnUse">
<stop stop-color="#F09F64"/>
<stop offset="0.0939" stop-color="#DB925F"/>
<stop offset="0.2676" stop-color="#B07954"/>
<stop offset="0.502" stop-color="#735440"/>
<stop offset="0.785" stop-color="#332923"/>
<stop offset="0.9607" stop-color="#010101"/>
</linearGradient>
<linearGradient id="paint21_linear_22_14" x1="106.762" y1="17.1827" x2="106.762" y2="9.11423" gradientUnits="userSpaceOnUse">
<stop stop-color="#F09F64"/>
<stop offset="0.0939" stop-color="#DB925F"/>
<stop offset="0.2676" stop-color="#B07954"/>
<stop offset="0.502" stop-color="#735440"/>
<stop offset="0.785" stop-color="#332923"/>
<stop offset="0.9607" stop-color="#010101"/>
</linearGradient>
<linearGradient id="paint22_linear_22_14" x1="79.2605" y1="37.8028" x2="105.985" y2="17.8963" gradientUnits="userSpaceOnUse">
<stop stop-color="#262525"/>
<stop offset="0.0202" stop-color="#302D2B"/>
<stop offset="0.1099" stop-color="#5D493D"/>
<stop offset="0.1986" stop-color="#8A644C"/>
<stop offset="0.2845" stop-color="#B17B56"/>
<stop offset="0.3669" stop-color="#D18D5D"/>
<stop offset="0.4442" stop-color="#E69961"/>
<stop offset="0.5112" stop-color="#F09F64"/>
<stop offset="0.5537" stop-color="#E39760"/>
<stop offset="0.6158" stop-color="#C9885A"/>
<stop offset="0.6901" stop-color="#A27150"/>
<stop offset="0.7737" stop-color="#725340"/>
<stop offset="0.8652" stop-color="#40332A"/>
<stop offset="0.9607" stop-color="#010101"/>
</linearGradient>
<linearGradient id="paint23_linear_22_14" x1="81.9444" y1="47.8725" x2="117.728" y2="21.2181" gradientUnits="userSpaceOnUse">
<stop stop-color="#010101"/>
<stop offset="0.00392389" stop-color="#050504"/>
<stop offset="0.0833" stop-color="#3C3028"/>
<stop offset="0.1624" stop-color="#674C3B"/>
<stop offset="0.2395" stop-color="#91664A"/>
<stop offset="0.3142" stop-color="#B67D55"/>
<stop offset="0.3858" stop-color="#D48E5D"/>
<stop offset="0.453" stop-color="#E79961"/>
<stop offset="0.5112" stop-color="#F09F64"/>
<stop offset="0.5574" stop-color="#E39760"/>
<stop offset="0.625" stop-color="#C9885A"/>
<stop offset="0.7058" stop-color="#A27150"/>
<stop offset="0.7967" stop-color="#725340"/>
<stop offset="0.8961" stop-color="#40332A"/>
<stop offset="1" stop-color="#010101"/>
</linearGradient>
<linearGradient id="paint24_linear_22_14" x1="73.31" y1="37.771" x2="116.079" y2="28.0804" gradientUnits="userSpaceOnUse">
<stop stop-color="#D62A29"/>
<stop offset="0.1207" stop-color="#D72C2A"/>
<stop offset="0.2433" stop-color="#DC312F"/>
<stop offset="0.3663" stop-color="#E63A39"/>
<stop offset="0.4382" stop-color="#EF4041"/>
<stop offset="0.5774" stop-color="#E13637"/>
<stop offset="0.8465" stop-color="#D0262A"/>
<stop offset="1" stop-color="#CA2027"/>
</linearGradient>
<linearGradient id="paint25_linear_22_14" x1="71.0508" y1="24.1765" x2="87.3593" y2="20.4813" gradientUnits="userSpaceOnUse">
<stop stop-color="#CA2027"/>
<stop offset="0.1535" stop-color="#D0262A"/>
<stop offset="0.4226" stop-color="#E13637"/>
<stop offset="0.5618" stop-color="#EF4041"/>
<stop offset="0.6337" stop-color="#E63A39"/>
<stop offset="0.7567" stop-color="#DC312F"/>
<stop offset="0.8793" stop-color="#D72C2A"/>
<stop offset="1" stop-color="#D62A29"/>
</linearGradient>
<linearGradient id="paint26_linear_22_14" x1="81.7518" y1="15.0885" x2="108.652" y2="8.99344" gradientUnits="userSpaceOnUse">
<stop stop-color="#CA2027"/>
<stop offset="0.1535" stop-color="#D0262A"/>
<stop offset="0.4226" stop-color="#E13637"/>
<stop offset="0.5618" stop-color="#EF4041"/>
<stop offset="0.6337" stop-color="#E63A39"/>
<stop offset="0.7567" stop-color="#DC312F"/>
<stop offset="0.8793" stop-color="#D72C2A"/>
<stop offset="1" stop-color="#D62A29"/>
</linearGradient>
<linearGradient id="paint27_linear_22_14" x1="77.3845" y1="58.3884" x2="128.958" y2="19.9724" gradientUnits="userSpaceOnUse">
<stop stop-color="#010101"/>
<stop offset="0.062" stop-color="#2E2621"/>
<stop offset="0.1469" stop-color="#5B4537"/>
<stop offset="0.2296" stop-color="#886147"/>
<stop offset="0.3081" stop-color="#B17954"/>
<stop offset="0.3814" stop-color="#D18C5C"/>
<stop offset="0.4474" stop-color="#E69961"/>
<stop offset="0.5" stop-color="#F09F64"/>
<stop offset="0.5365" stop-color="#E29760"/>
<stop offset="0.5924" stop-color="#C68659"/>
<stop offset="0.6609" stop-color="#9C6D4E"/>
<stop offset="0.7392" stop-color="#694E3C"/>
<stop offset="0.8246" stop-color="#362B25"/>
<stop offset="0.8933" stop-color="#010101"/>
</linearGradient>
<linearGradient id="paint28_linear_22_14" x1="62.9846" y1="37.5884" x2="126.15" y2="23.2762" gradientUnits="userSpaceOnUse">
<stop stop-color="#D62A29"/>
<stop offset="0.1207" stop-color="#D72C2A"/>
<stop offset="0.2433" stop-color="#DC312F"/>
<stop offset="0.3663" stop-color="#E63A39"/>
<stop offset="0.4382" stop-color="#EF4041"/>
<stop offset="0.5774" stop-color="#E13637"/>
<stop offset="0.8465" stop-color="#D0262A"/>
<stop offset="1" stop-color="#CA2027"/>
</linearGradient>
<linearGradient id="paint29_linear_22_14" x1="81.5682" y1="10.4935" x2="116.578" y2="2.56093" gradientUnits="userSpaceOnUse">
<stop stop-color="#F36E21"/>
<stop offset="0.2785" stop-color="#F37022"/>
<stop offset="0.4617" stop-color="#F47723"/>
<stop offset="0.6174" stop-color="#F58226"/>
<stop offset="0.7578" stop-color="#F7902C"/>
<stop offset="0.8866" stop-color="#FAA435"/>
<stop offset="1" stop-color="#FDBB40"/>
</linearGradient>
<linearGradient id="paint30_linear_22_14" x1="81.5681" y1="10.4932" x2="116.578" y2="2.56056" gradientUnits="userSpaceOnUse">
<stop stop-color="#D62A29"/>
<stop offset="0.1207" stop-color="#D72C2A"/>
<stop offset="0.2433" stop-color="#DC312F"/>
<stop offset="0.3663" stop-color="#E63A39"/>
<stop offset="0.4382" stop-color="#EF4041"/>
<stop offset="0.5774" stop-color="#E13637"/>
<stop offset="0.8465" stop-color="#D0262A"/>
<stop offset="1" stop-color="#CA2027"/>
</linearGradient>
</defs>
</svg>
