<svg xmlns="http://www.w3.org/2000/svg" xmlns:xlink="http://www.w3.org/1999/xlink" viewBox="0 0 73.66 65.23"><defs><style>.cls-1{fill:url(#linear-gradient);}.cls-2{fill:url(#linear-gradient-2);}.cls-3{fill:url(#linear-gradient-3);}.cls-4{fill:url(#linear-gradient-4);}.cls-5{fill:url(#linear-gradient-5);}.cls-6{fill:url(#linear-gradient-6);}.cls-7{fill:url(#linear-gradient-7);}.cls-8{fill:url(#linear-gradient-8);}.cls-9{fill:#f36e21;}.cls-10{fill:url(#linear-gradient-9);}.cls-11{fill:url(#linear-gradient-10);}.cls-12{fill:url(#linear-gradient-11);}.cls-13{fill:url(#linear-gradient-12);}.cls-14{fill:url(#linear-gradient-13);}</style><linearGradient id="linear-gradient" x1="5.35" y1="42.45" x2="58.04" y2="-2.46" gradientUnits="userSpaceOnUse"><stop offset="0" stop-color="#010101"/><stop offset="0.02" stop-color="#140d08"/><stop offset="0.1" stop-color="#4f3120"/><stop offset="0.18" stop-color="#825134"/><stop offset="0.25" stop-color="#ac6a45"/><stop offset="0.32" stop-color="#cc7e51"/><stop offset="0.39" stop-color="#e38c5b"/><stop offset="0.46" stop-color="#f19560"/><stop offset="0.51" stop-color="#f69862"/><stop offset="0.55" stop-color="#ef945f"/><stop offset="0.61" stop-color="#db8857"/><stop offset="0.68" stop-color="#bb744b"/><stop offset="0.76" stop-color="#8e5839"/><stop offset="0.85" stop-color="#553522"/><stop offset="0.94" stop-color="#100a07"/><stop offset="0.96" stop-color="#010101"/></linearGradient><linearGradient id="linear-gradient-2" x1="33.6" y1="27.63" x2="33.6" y2="9.04" gradientUnits="userSpaceOnUse"><stop offset="0.22" stop-color="#f09f64"/><stop offset="0.31" stop-color="#da905b"/><stop offset="0.5" stop-color="#a16b43"/><stop offset="0.77" stop-color="#462f1e"/><stop offset="0.96" stop-color="#010101"/></linearGradient><linearGradient id="linear-gradient-3" x1="61.97" y1="12.65" x2="61.97" y2="3.47" gradientUnits="userSpaceOnUse"><stop offset="0" stop-color="#f09f64"/><stop offset="0.09" stop-color="#e3965f"/><stop offset="0.26" stop-color="#c18050"/><stop offset="0.49" stop-color="#895b39"/><stop offset="0.76" stop-color="#3d291a"/><stop offset="0.96" stop-color="#010101"/></linearGradient><linearGradient id="linear-gradient-4" x1="52.75" y1="18.9" x2="52.75" y2="10.02" xlink:href="#linear-gradient-3"/><linearGradient id="linear-gradient-5" x1="18.14" y1="41.57" x2="48.43" y2="15.76" gradientUnits="userSpaceOnUse"><stop offset="0" stop-color="#262525"/><stop offset="0.05" stop-color="#4a3b30"/><stop offset="0.14" stop-color="#7c5940"/><stop offset="0.22" stop-color="#a6724d"/><stop offset="0.3" stop-color="#c68657"/><stop offset="0.38" stop-color="#dd945e"/><stop offset="0.45" stop-color="#eb9c63"/><stop offset="0.51" stop-color="#f09f64"/><stop offset="0.55" stop-color="#e99a61"/><stop offset="0.61" stop-color="#d58d59"/><stop offset="0.69" stop-color="#b5784c"/><stop offset="0.77" stop-color="#885a39"/><stop offset="0.86" stop-color="#4f3421"/><stop offset="0.95" stop-color="#0a0705"/><stop offset="0.96" stop-color="#010101"/></linearGradient><linearGradient id="linear-gradient-6" x1="21.52" y1="52.64" x2="62.07" y2="18.08" gradientUnits="userSpaceOnUse"><stop offset="0" stop-color="#010101"/><stop offset="0.02" stop-color="#0e0a06"/><stop offset="0.09" stop-color="#49311f"/><stop offset="0.17" stop-color="#7c5234"/><stop offset="0.25" stop-color="#a66e45"/><stop offset="0.32" stop-color="#c68353"/><stop offset="0.39" stop-color="#dd935c"/><stop offset="0.45" stop-color="#eb9c62"/><stop offset="0.51" stop-color="#f09f64"/><stop offset="0.56" stop-color="#e99a61"/><stop offset="0.62" stop-color="#d58d59"/><stop offset="0.7" stop-color="#b5784c"/><stop offset="0.79" stop-color="#885a39"/><stop offset="0.89" stop-color="#4f3421"/><stop offset="0.99" stop-color="#0a0705"/><stop offset="1" stop-color="#010101"/></linearGradient><linearGradient id="linear-gradient-7" x1="10.66" y1="41.53" x2="63.67" y2="27.79" gradientUnits="userSpaceOnUse"><stop offset="0" stop-color="#d62a29"/><stop offset="0.17" stop-color="#da2e2d"/><stop offset="0.35" stop-color="#e63839"/><stop offset="0.44" stop-color="#ef4041"/><stop offset="0.78" stop-color="#d52a2f"/><stop offset="1" stop-color="#ca2027"/></linearGradient><linearGradient id="linear-gradient-8" x1="7.81" y1="26.59" x2="28.03" y2="21.35" gradientUnits="userSpaceOnUse"><stop offset="0" stop-color="#ca2027"/><stop offset="0.22" stop-color="#d52a2f"/><stop offset="0.56" stop-color="#ef4041"/><stop offset="0.65" stop-color="#e63839"/><stop offset="0.83" stop-color="#da2e2d"/><stop offset="1" stop-color="#d62a29"/></linearGradient><linearGradient id="linear-gradient-9" x1="21.28" y1="16.59" x2="54.62" y2="7.95" xlink:href="#linear-gradient-8"/><linearGradient id="linear-gradient-10" x1="15.78" y1="64.21" x2="74.22" y2="14.4" gradientUnits="userSpaceOnUse"><stop offset="0" stop-color="#010101"/><stop offset="0.07" stop-color="#382518"/><stop offset="0.16" stop-color="#6f4a2f"/><stop offset="0.24" stop-color="#9e6842"/><stop offset="0.31" stop-color="#c18051"/><stop offset="0.38" stop-color="#db915b"/><stop offset="0.45" stop-color="#eb9b62"/><stop offset="0.5" stop-color="#f09f64"/><stop offset="0.54" stop-color="#e89a61"/><stop offset="0.59" stop-color="#d38c58"/><stop offset="0.66" stop-color="#b07549"/><stop offset="0.73" stop-color="#7f5435"/><stop offset="0.82" stop-color="#422c1c"/><stop offset="0.89" stop-color="#010101"/></linearGradient><linearGradient id="linear-gradient-11" x1="-2.34" y1="41.33" x2="75.96" y2="21.04" xlink:href="#linear-gradient-7"/><linearGradient id="linear-gradient-12" x1="21.05" y1="11.54" x2="64.44" y2="0.29" gradientUnits="userSpaceOnUse"><stop offset="0" stop-color="#f36e21"/><stop offset="0.31" stop-color="#f37122"/><stop offset="0.52" stop-color="#f47a26"/><stop offset="0.69" stop-color="#f6882c"/><stop offset="0.84" stop-color="#f99d34"/><stop offset="0.99" stop-color="#fdb93f"/><stop offset="1" stop-color="#fdbb40"/></linearGradient><linearGradient id="linear-gradient-13" x1="21.05" y1="11.54" x2="64.44" y2="0.29" xlink:href="#linear-gradient-7"/></defs><title>Asset 1</title><g id="Layer_2" data-name="Layer 2"><g id="Layer_1-2" data-name="Layer 1"><path class="cls-1" d="M10.85,50.16a31.27,31.27,0,0,1,.87-19.27c3.91-9.71,12.09-17,22.24-20.57s20.46-2.6,27.24,2.59l-.81-4.18L51.18,2.28s-17.77-3.86-33.72,12S2.83,36.71,4.09,42.21,10.85,50.16,10.85,50.16Z"/><path class="cls-2" d="M24.75,25.9a25.92,25.92,0,0,1,11.36-8.18c7-2.3,13.57-.71,15.83,1.43l-.39-2.44s-2.13-4.64-6.33-5.78-14.11-.13-20.47,4.92-8.88,9-9.43,10.77,3,1.65,3.68,1.38S24.75,25.9,24.75,25.9Z"/><polygon class="cls-3" points="62.42 4.2 57.67 7.96 61.2 12.91 66.27 9.34 62.42 4.2"/><polygon class="cls-4" points="56.78 15.68 53.02 10.72 48.71 14.13 51.94 19.15 56.78 15.68"/><path class="cls-5" d="M9.94,32.77,13.59,38,49.31,30.8s3.94-6,1.79-6.87-25.57,3.94-28.49,4.6S9.94,32.77,9.94,32.77Z"/><path class="cls-6" d="M12.69,44.06s4.66,9.26,14.88,9S43.58,50,51,43.64s9.8-14.87,10-18.76l-3.11-5.25s-6.33,16.24-14.09,21.5S28.4,46.57,23.15,46.21A46.74,46.74,0,0,1,12.69,44.06Z"/><path class="cls-7" d="M25.73,25l2.94,4.29,21.78-4.08a23.35,23.35,0,0,1-15,16.61c-12.72,4.42-18-2.39-18-2.39l-4.78,4.66s6.57,7.76,19.3,4.6A35.49,35.49,0,0,0,54.81,31.21a30.42,30.42,0,0,0,3-11.58Z"/><path class="cls-8" d="M16.22,26.56a39.93,39.93,0,0,1,6.45-7.93l-.42-3.87A39.86,39.86,0,0,0,18,18.49c-7.47,7.59-8,12.9-8.07,14.28l18.73-3.51L25.73,25Z"/><path class="cls-9" d="M28.16,14.43c7.47-4.42,15.54-4.12,20.55-.3L53,10.72S50.92,7.08,43,7.2a36,36,0,0,0-20.73,7.56l.42,3.87A30.7,30.7,0,0,1,28.16,14.43Z"/><path class="cls-10" d="M28.16,14.43c7.47-4.42,15.54-4.12,20.55-.3L53,10.72S50.92,7.08,43,7.2a36,36,0,0,0-20.73,7.56l.42,3.87A30.7,30.7,0,0,1,28.16,14.43Z"/><path class="cls-11" d="M2.64,49.13c-1-.65,1.5,3.73,2.07,4.8C11.37,66.5,32.36,69,50.54,59.35,66.46,50.93,76,36.25,73.18,24.11l-3.3-5.46s-6.8,21.72-19.11,28.29S24.3,63.28,2.64,49.13Z"/><path class="cls-12" d="M63.31,19c1.17,9.51-5.81,21.2-18,28.59-14.91,9.06-31.94,8.25-38-1.81s.86-25.21,15.43-34.3l-.79-3.32C4.42,18.41-4.48,36.65,2.25,49s27,14.57,45.15,4.69c15.66-8.52,24.66-23.18,22.48-35.05Z"/><path class="cls-13" d="M43.93,3.75C54.69,3.69,57.67,8,57.67,8l4.76-3.76c-1.91-2.54-12.23-6.14-24.51-3a53.73,53.73,0,0,0-16,6.87l.31,3.62C29.77,6.76,36.78,3.79,43.93,3.75Z"/><path class="cls-14" d="M43.93,3.75C54.69,3.75,57.67,8,57.67,8l4.76-3.76c-1.91-2.54-12.23-6.12-24.51-3a53.73,53.73,0,0,0-16,6.87l.31,3.62C30.06,6.64,36.82,3.75,43.93,3.75Z"/></g></g></svg>